<?xml version="1.0" encoding="utf-8"?>
<!-- Generator: Adobe Illustrator 16.0.0, SVG Export Plug-In . SVG Version: 6.00 Build 0)  -->
<!DOCTYPE svg PUBLIC "-//W3C//DTD SVG 1.1//EN" "http://www.w3.org/Graphics/SVG/1.1/DTD/svg11.dtd">
<svg version="1.1" id="Layer_1" xmlns="http://www.w3.org/2000/svg" xmlns:xlink="http://www.w3.org/1999/xlink" x="0px" y="0px"
	 width="64" height="64" viewBox="0 0 512 512" enable-background="new 0 0 512 512" xml:space="preserve">
<path d="M366.063,138.545L117.197,242.224c-8.746,3.719-7.816,16.377,1.307,18.799l50.071,13.215
	c3.159,0.746,5.764,3.352,6.887,6.514l25.316,77.993c2.229,7.255,11.904,9.304,16.939,3.347l28.658-33.128
	c3.535-4.101,9.685-4.653,13.772-1.308l55.844,44.305c5.772,4.648,14.334,1.675,16.009-5.588l47.65-216.476
	C381.326,142.08,373.51,135.566,366.063,138.545z M317.432,209.836l-106.099,92.507c-2.421,2.048-3.913,5.026-4.097,8.192
	l-3.72,41.879c-0.192,1.864-2.614,2.049-3.167,0.373l-16.938-60.678c-0.746-2.421,0.184-5.026,2.421-6.329l129.916-78.178
	C317.055,206.674,318.547,208.718,317.432,209.836z"/>
<path d="M256,0C114.609,0,0,114.609,0,256c0,141.391,114.608,256,256,256c141.391,0,256-114.609,256-256
	C512,114.609,397.391,0,256,0z M256,472c-119.297,0-216-96.703-216-216S136.703,40,256,40s216,96.703,216,216S375.297,472,256,472z"
	/>
</svg>
